<svg width="30" height="21" viewBox="0 0 30 21" fill="none" xmlns="http://www.w3.org/2000/svg">
<path d="M11.7927 4.99677H18.21V16.0021H11.7927V4.99677Z" fill="#FF5F00"/>
<path d="M12.4537 10.5004C12.4529 9.4407 12.6817 8.39467 13.1228 7.44151C13.5638 6.48834 14.2056 5.653 14.9995 4.99871C14.0162 4.1873 12.8353 3.68273 11.5919 3.54267C10.3484 3.40261 9.09244 3.63271 7.9676 4.20668C6.84277 4.78064 5.89441 5.67531 5.23093 6.78843C4.56744 7.90155 4.21559 9.18822 4.21559 10.5014C4.21559 11.8145 4.56744 13.1012 5.23093 14.2143C5.89441 15.3274 6.84277 16.2221 7.9676 16.7961C9.09244 17.37 10.3484 17.6001 11.5919 17.4601C12.8353 17.32 14.0162 16.8154 14.9995 16.004C14.2054 15.3495 13.5634 14.5139 13.1224 13.5604C12.6813 12.6068 12.4527 11.5604 12.4537 10.5004V10.5004Z" fill="#EB001B"/>
<path d="M25.1475 14.8376V14.6121H25.2401V14.5654H25.0198V14.6121H25.1068V14.8376L25.1475 14.8376ZM25.5752 14.8376V14.5655H25.5086L25.4308 14.7598L25.353 14.5654H25.2864V14.8376H25.3345V14.6315L25.4067 14.8085H25.4567L25.5289 14.6315V14.8376H25.5752Z" fill="#F79E1B"/>
<path d="M25.7844 10.5004C25.7844 11.8137 25.4325 13.1004 24.7689 14.2136C24.1053 15.3268 23.1568 16.2214 22.0318 16.7953C20.9068 17.3692 19.6507 17.5991 18.4072 17.4589C17.1636 17.3186 15.9827 16.8138 14.9995 16.0021C15.7931 15.3472 16.4347 14.5117 16.8759 13.5585C17.317 12.6052 17.5463 11.5593 17.5463 10.4994C17.5463 9.43963 17.317 8.39366 16.8759 7.44044C16.4347 6.48723 15.7931 5.65166 14.9995 4.99679C15.9827 4.18512 17.1636 3.6803 18.4072 3.54004C19.6508 3.39977 20.9068 3.62973 22.0318 4.20361C23.1568 4.77749 24.1053 5.67215 24.7689 6.78532C25.4325 7.89848 25.7844 9.18524 25.7844 10.4985V10.5004Z" fill="#F79E1B"/>
</svg>
