<svg width="103" height="30" viewBox="0 0 103 30" fill="none" xmlns="http://www.w3.org/2000/svg">
<rect width="103" height="30" rx="15" fill="#201F1A"/>
<path d="M16.3118 19H14.343L17.9276 8.81818H20.2045L23.794 19H21.8253L19.1058 10.9062H19.0263L16.3118 19ZM16.3764 15.0078H21.7457V16.4893H16.3764V15.0078ZM30.968 13.3821L29.3274 13.5611C29.281 13.3954 29.1998 13.2396 29.0838 13.0938C28.9711 12.9479 28.8187 12.8303 28.6264 12.7408C28.4342 12.6513 28.1989 12.6065 27.9205 12.6065C27.5459 12.6065 27.2311 12.6877 26.9759 12.8501C26.724 13.0125 26.5997 13.223 26.603 13.4815C26.5997 13.7036 26.6809 13.8842 26.8466 14.0234C27.0156 14.1626 27.294 14.277 27.6818 14.3665L28.9844 14.6449C29.7069 14.8007 30.2438 15.0476 30.5952 15.3857C30.9498 15.7237 31.1288 16.1662 31.1321 16.7131C31.1288 17.1937 30.9879 17.6179 30.7095 17.9858C30.4344 18.3504 30.0516 18.6354 29.5611 18.8409C29.0705 19.0464 28.5071 19.1491 27.8707 19.1491C26.9361 19.1491 26.1837 18.9536 25.6136 18.5625C25.0436 18.1681 24.7038 17.6196 24.5945 16.9169L26.3494 16.7479C26.429 17.0926 26.598 17.3527 26.8565 17.5284C27.1151 17.7041 27.4515 17.7919 27.8658 17.7919C28.2933 17.7919 28.6364 17.7041 28.8949 17.5284C29.1567 17.3527 29.2876 17.1357 29.2876 16.8771C29.2876 16.6584 29.2031 16.4777 29.0341 16.3352C28.8684 16.1927 28.6098 16.0833 28.2585 16.0071L26.956 15.7337C26.2235 15.5812 25.6816 15.3243 25.3303 14.9631C24.9789 14.5985 24.8049 14.1378 24.8082 13.581C24.8049 13.1103 24.9325 12.7027 25.1911 12.358C25.4529 12.0099 25.8158 11.7415 26.2798 11.5526C26.7472 11.3603 27.2857 11.2642 27.8956 11.2642C28.7905 11.2642 29.4948 11.4548 30.0085 11.8359C30.5256 12.2171 30.8454 12.7325 30.968 13.3821ZM35.9471 19.1491C35.1848 19.1491 34.5302 18.9818 33.9833 18.647C33.4397 18.3123 33.0205 17.8499 32.7255 17.2599C32.4338 16.6667 32.288 15.9839 32.288 15.2116C32.288 14.4361 32.4371 13.7517 32.7354 13.1584C33.0337 12.5618 33.4547 12.0978 33.9982 11.7663C34.5451 11.4316 35.1914 11.2642 35.9371 11.2642C36.5569 11.2642 37.1055 11.3786 37.5827 11.6072C38.0633 11.8326 38.4461 12.1525 38.7312 12.5668C39.0162 12.9777 39.1786 13.4583 39.2184 14.0085H37.4982C37.4286 13.6406 37.2629 13.334 37.0011 13.0888C36.7425 12.8402 36.3962 12.7159 35.962 12.7159C35.5941 12.7159 35.271 12.8153 34.9925 13.0142C34.7141 13.2098 34.497 13.4915 34.3413 13.8594C34.1888 14.2273 34.1126 14.6681 34.1126 15.1818C34.1126 15.7022 34.1888 16.1496 34.3413 16.5241C34.4937 16.8954 34.7075 17.1821 34.9826 17.3842C35.261 17.5831 35.5875 17.6825 35.962 17.6825C36.2272 17.6825 36.4641 17.6328 36.6729 17.5334C36.8851 17.4306 37.0624 17.2831 37.2049 17.0909C37.3474 16.8987 37.4452 16.665 37.4982 16.3899H39.2184C39.1753 16.9302 39.0162 17.4091 38.7411 17.8267C38.466 18.241 38.0915 18.5658 37.6175 18.8011C37.1436 19.0331 36.5868 19.1491 35.9471 19.1491ZM44.0769 19.1491C43.3113 19.1491 42.65 18.9901 42.0932 18.6719C41.5397 18.3504 41.1138 17.8963 40.8155 17.3097C40.5172 16.7197 40.3681 16.0253 40.3681 15.2266C40.3681 14.4411 40.5172 13.7517 40.8155 13.1584C41.1171 12.5618 41.5381 12.0978 42.0783 11.7663C42.6185 11.4316 43.2533 11.2642 43.9824 11.2642C44.4531 11.2642 44.8972 11.3404 45.3148 11.4929C45.7357 11.642 46.1069 11.8741 46.4284 12.1889C46.7533 12.5038 47.0085 12.9048 47.1941 13.392C47.3797 13.8759 47.4725 14.4527 47.4725 15.1222V15.674H41.2132V14.4609H45.7473C45.744 14.1162 45.6694 13.8097 45.5236 13.5412C45.3778 13.2694 45.1739 13.0556 44.9121 12.8999C44.6536 12.7441 44.352 12.6662 44.0073 12.6662C43.6394 12.6662 43.3162 12.7557 43.0378 12.9347C42.7594 13.1103 42.5423 13.3423 42.3865 13.6307C42.2341 13.9157 42.1562 14.2289 42.1529 14.5703V15.6293C42.1529 16.0734 42.2341 16.4545 42.3965 16.7727C42.5589 17.0876 42.7859 17.3295 43.0776 17.4986C43.3693 17.6643 43.7106 17.7472 44.1017 17.7472C44.3636 17.7472 44.6006 17.7107 44.8127 17.6378C45.0248 17.5616 45.2087 17.4505 45.3645 17.3047C45.5203 17.1589 45.638 16.9782 45.7175 16.7628L47.3979 16.9517C47.2918 17.3958 47.0897 17.7836 46.7914 18.1151C46.4964 18.4432 46.1185 18.6984 45.6578 18.8807C45.1971 19.0597 44.6702 19.1491 44.0769 19.1491ZM50.7947 14.5256V19H48.995V11.3636H50.7152V12.6612H50.8047C50.9804 12.2337 51.2604 11.8939 51.6449 11.642C52.0327 11.3902 52.5116 11.2642 53.0817 11.2642C53.6087 11.2642 54.0677 11.3769 54.4588 11.6023C54.8532 11.8277 55.1581 12.1541 55.3736 12.5817C55.5923 13.0092 55.7 13.5279 55.6967 14.1378V19H53.897V14.4162C53.897 13.9058 53.7644 13.5064 53.4993 13.218C53.2375 12.9297 52.8745 12.7855 52.4105 12.7855C52.0956 12.7855 51.8156 12.8551 51.5703 12.9943C51.3284 13.1302 51.1378 13.3274 50.9986 13.5859C50.8627 13.8445 50.7947 14.1577 50.7947 14.5256ZM60.3601 19.1342C59.7602 19.1342 59.2232 18.9801 58.7493 18.6719C58.2753 18.3636 57.9008 17.9162 57.6257 17.3295C57.3506 16.7429 57.2131 16.0303 57.2131 15.1918C57.2131 14.3433 57.3523 13.6274 57.6307 13.044C57.9124 12.4574 58.2919 12.0149 58.7692 11.7166C59.2464 11.415 59.7784 11.2642 60.3651 11.2642C60.8125 11.2642 61.1804 11.3404 61.4688 11.4929C61.7571 11.642 61.9858 11.8227 62.1548 12.0348C62.3239 12.2436 62.4548 12.4408 62.5476 12.6264H62.6222V8.81818H64.4268V19H62.657V17.7969H62.5476C62.4548 17.9825 62.3205 18.1797 62.1449 18.3885C61.9692 18.594 61.7372 18.7696 61.4489 18.9155C61.1605 19.0613 60.7976 19.1342 60.3601 19.1342ZM60.8622 17.6577C61.2434 17.6577 61.5682 17.5549 61.8366 17.3494C62.1051 17.1406 62.3089 16.8506 62.4482 16.4794C62.5874 16.1082 62.657 15.6757 62.657 15.1818C62.657 14.688 62.5874 14.2588 62.4482 13.8942C62.3123 13.5296 62.1101 13.2462 61.8416 13.044C61.5765 12.8419 61.25 12.7408 60.8622 12.7408C60.4612 12.7408 60.1264 12.8452 59.858 13.054C59.5895 13.2628 59.3873 13.5511 59.2514 13.919C59.1155 14.2869 59.0476 14.7079 59.0476 15.1818C59.0476 15.6591 59.1155 16.085 59.2514 16.4595C59.3906 16.8307 59.5945 17.1241 59.8629 17.3395C60.1347 17.5516 60.4678 17.6577 60.8622 17.6577ZM66.3446 19V11.3636H68.1444V19H66.3446ZM67.2495 10.2798C66.9644 10.2798 66.7192 10.1854 66.5137 9.99645C66.3082 9.80421 66.2054 9.57386 66.2054 9.3054C66.2054 9.03362 66.3082 8.80327 66.5137 8.61435C66.7192 8.42211 66.9644 8.32599 67.2495 8.32599C67.5378 8.32599 67.7831 8.42211 67.9853 8.61435C68.1908 8.80327 68.2935 9.03362 68.2935 9.3054C68.2935 9.57386 68.1908 9.80421 67.9853 9.99645C67.7831 10.1854 67.5378 10.2798 67.2495 10.2798ZM71.7947 14.5256V19H69.995V11.3636H71.7152V12.6612H71.8047C71.9804 12.2337 72.2604 11.8939 72.6449 11.642C73.0327 11.3902 73.5116 11.2642 74.0817 11.2642C74.6087 11.2642 75.0677 11.3769 75.4588 11.6023C75.8532 11.8277 76.1581 12.1541 76.3736 12.5817C76.5923 13.0092 76.7 13.5279 76.6967 14.1378V19H74.897V14.4162C74.897 13.9058 74.7644 13.5064 74.4993 13.218C74.2375 12.9297 73.8745 12.7855 73.4105 12.7855C73.0956 12.7855 72.8156 12.8551 72.5703 12.9943C72.3284 13.1302 72.1378 13.3274 71.9986 13.5859C71.8627 13.8445 71.7947 14.1577 71.7947 14.5256ZM81.8473 22.0227C81.201 22.0227 80.6458 21.9349 80.1818 21.7592C79.7178 21.5869 79.3449 21.3549 79.0632 21.0632C78.7815 20.7715 78.5859 20.4484 78.4766 20.0938L80.0973 19.701C80.1702 19.8501 80.2763 19.9976 80.4155 20.1435C80.5547 20.2926 80.742 20.4152 80.9773 20.5114C81.2159 20.6108 81.5159 20.6605 81.8771 20.6605C82.3875 20.6605 82.8101 20.5362 83.1449 20.2876C83.4796 20.0424 83.647 19.638 83.647 19.0746V17.6278H83.5575C83.4647 17.8134 83.3288 18.004 83.1499 18.1996C82.9742 18.3951 82.7405 18.5592 82.4489 18.6918C82.1605 18.8243 81.7976 18.8906 81.3601 18.8906C80.7734 18.8906 80.2415 18.7531 79.7642 18.478C79.2902 18.1996 78.9124 17.7853 78.6307 17.2351C78.3523 16.6816 78.2131 15.9889 78.2131 15.157C78.2131 14.3184 78.3523 13.6108 78.6307 13.0341C78.9124 12.4541 79.2919 12.0149 79.7692 11.7166C80.2464 11.415 80.7784 11.2642 81.3651 11.2642C81.8125 11.2642 82.1804 11.3404 82.4688 11.4929C82.7604 11.642 82.9924 11.8227 83.1648 12.0348C83.3371 12.2436 83.468 12.4408 83.5575 12.6264H83.657V11.3636H85.4318V19.1243C85.4318 19.7772 85.276 20.3175 84.9645 20.745C84.6529 21.1726 84.227 21.4924 83.6868 21.7045C83.1465 21.9167 82.5334 22.0227 81.8473 22.0227ZM81.8622 17.4787C82.2434 17.4787 82.5682 17.3859 82.8366 17.2003C83.1051 17.0147 83.3089 16.7479 83.4482 16.3999C83.5874 16.0518 83.657 15.6342 83.657 15.147C83.657 14.6664 83.5874 14.2455 83.4482 13.8842C83.3123 13.523 83.1101 13.2429 82.8416 13.044C82.5765 12.8419 82.25 12.7408 81.8622 12.7408C81.4612 12.7408 81.1264 12.8452 80.858 13.054C80.5895 13.2628 80.3873 13.5495 80.2514 13.9141C80.1155 14.2753 80.0476 14.6863 80.0476 15.147C80.0476 15.6143 80.1155 16.0237 80.2514 16.375C80.3906 16.723 80.5945 16.9948 80.8629 17.1903C81.1347 17.3826 81.4678 17.4787 81.8622 17.4787Z" fill="#DEE0DB"/>
</svg>
