<svg width="103" height="30" viewBox="0 0 103 30" fill="none" xmlns="http://www.w3.org/2000/svg">
<rect width="103" height="30" rx="15" fill="#201F1A"/>
<path d="M15.4545 19H12.0043V8.81818H15.5241C16.535 8.81818 17.4034 9.02202 18.1293 9.42969C18.8584 9.83404 19.4186 10.4157 19.8097 11.1747C20.2008 11.9337 20.3963 12.8419 20.3963 13.8991C20.3963 14.9598 20.1991 15.8712 19.8047 16.6335C19.4136 17.3958 18.8485 17.9808 18.1094 18.3885C17.3736 18.7962 16.4886 19 15.4545 19ZM13.8487 17.4041H15.3651C16.0743 17.4041 16.666 17.2749 17.1399 17.0163C17.6139 16.7545 17.9702 16.3651 18.2088 15.848C18.4474 15.3277 18.5668 14.678 18.5668 13.8991C18.5668 13.1203 18.4474 12.474 18.2088 11.9602C17.9702 11.4432 17.6172 11.0571 17.1499 10.8018C16.6858 10.5433 16.1091 10.4141 15.4197 10.4141H13.8487V17.4041ZM25.4499 19.1491C24.6843 19.1491 24.0231 18.9901 23.4663 18.6719C22.9128 18.3504 22.4869 17.8963 22.1886 17.3097C21.8903 16.7197 21.7411 16.0253 21.7411 15.2266C21.7411 14.4411 21.8903 13.7517 22.1886 13.1584C22.4902 12.5618 22.9111 12.0978 23.4513 11.7663C23.9916 11.4316 24.6263 11.2642 25.3555 11.2642C25.8261 11.2642 26.2702 11.3404 26.6879 11.4929C27.1088 11.642 27.48 11.8741 27.8015 12.1889C28.1263 12.5038 28.3815 12.9048 28.5671 13.392C28.7527 13.8759 28.8455 14.4527 28.8455 15.1222V15.674H22.5863V14.4609H27.1204C27.1171 14.1162 27.0425 13.8097 26.8967 13.5412C26.7508 13.2694 26.547 13.0556 26.2852 12.8999C26.0266 12.7441 25.725 12.6662 25.3803 12.6662C25.0124 12.6662 24.6893 12.7557 24.4109 12.9347C24.1325 13.1103 23.9154 13.3423 23.7596 13.6307C23.6071 13.9157 23.5292 14.2289 23.5259 14.5703V15.6293C23.5259 16.0734 23.6071 16.4545 23.7695 16.7727C23.9319 17.0876 24.159 17.3295 24.4506 17.4986C24.7423 17.6643 25.0837 17.7472 25.4748 17.7472C25.7366 17.7472 25.9736 17.7107 26.1857 17.6378C26.3978 17.5616 26.5818 17.4505 26.7376 17.3047C26.8933 17.1589 27.011 16.9782 27.0906 16.7628L28.771 16.9517C28.6649 17.3958 28.4627 17.7836 28.1644 18.1151C27.8694 18.4432 27.4916 18.6984 27.0309 18.8807C26.5702 19.0597 26.0432 19.1491 25.4499 19.1491ZM36.4036 13.3821L34.763 13.5611C34.7166 13.3954 34.6354 13.2396 34.5194 13.0938C34.4067 12.9479 34.2542 12.8303 34.062 12.7408C33.8697 12.6513 33.6344 12.6065 33.356 12.6065C32.9815 12.6065 32.6666 12.6877 32.4114 12.8501C32.1595 13.0125 32.0352 13.223 32.0385 13.4815C32.0352 13.7036 32.1164 13.8842 32.2821 14.0234C32.4512 14.1626 32.7296 14.277 33.1174 14.3665L34.4199 14.6449C35.1425 14.8007 35.6794 15.0476 36.0307 15.3857C36.3854 15.7237 36.5643 16.1662 36.5676 16.7131C36.5643 17.1937 36.4235 17.6179 36.1451 17.9858C35.87 18.3504 35.4872 18.6354 34.9966 18.8409C34.5061 19.0464 33.9426 19.1491 33.3063 19.1491C32.3716 19.1491 31.6193 18.9536 31.0492 18.5625C30.4791 18.1681 30.1394 17.6196 30.03 16.9169L31.785 16.7479C31.8645 17.0926 32.0336 17.3527 32.2921 17.5284C32.5506 17.7041 32.887 17.7919 33.3013 17.7919C33.7289 17.7919 34.0719 17.7041 34.3304 17.5284C34.5923 17.3527 34.7232 17.1357 34.7232 16.8771C34.7232 16.6584 34.6387 16.4777 34.4696 16.3352C34.3039 16.1927 34.0454 16.0833 33.6941 16.0071L32.3915 15.7337C31.659 15.5812 31.1171 15.3243 30.7658 14.9631C30.4145 14.5985 30.2405 14.1378 30.2438 13.581C30.2405 13.1103 30.3681 12.7027 30.6266 12.358C30.8884 12.0099 31.2514 11.7415 31.7154 11.5526C32.1827 11.3603 32.7213 11.2642 33.3311 11.2642C34.226 11.2642 34.9303 11.4548 35.4441 11.8359C35.9611 12.2171 36.281 12.7325 36.4036 13.3821ZM41.3826 19.1491C40.6203 19.1491 39.9657 18.9818 39.4189 18.647C38.8753 18.3123 38.456 17.8499 38.161 17.2599C37.8694 16.6667 37.7235 15.9839 37.7235 15.2116C37.7235 14.4361 37.8727 13.7517 38.171 13.1584C38.4693 12.5618 38.8902 12.0978 39.4338 11.7663C39.9806 11.4316 40.627 11.2642 41.3727 11.2642C41.9925 11.2642 42.541 11.3786 43.0183 11.6072C43.4989 11.8326 43.8817 12.1525 44.1667 12.5668C44.4518 12.9777 44.6142 13.4583 44.6539 14.0085H42.9338C42.8642 13.6406 42.6984 13.334 42.4366 13.0888C42.1781 12.8402 41.8317 12.7159 41.3975 12.7159C41.0297 12.7159 40.7065 12.8153 40.4281 13.0142C40.1497 13.2098 39.9326 13.4915 39.7768 13.8594C39.6243 14.2273 39.5481 14.6681 39.5481 15.1818C39.5481 15.7022 39.6243 16.1496 39.7768 16.5241C39.9293 16.8954 40.1431 17.1821 40.4181 17.3842C40.6966 17.5831 41.023 17.6825 41.3975 17.6825C41.6627 17.6825 41.8997 17.6328 42.1085 17.5334C42.3206 17.4306 42.4979 17.2831 42.6404 17.0909C42.783 16.8987 42.8807 16.665 42.9338 16.3899H44.6539C44.6109 16.9302 44.4518 17.4091 44.1767 17.8267C43.9016 18.241 43.527 18.5658 43.0531 18.8011C42.5791 19.0331 42.0223 19.1491 41.3826 19.1491ZM49.5124 19.1491C48.7468 19.1491 48.0856 18.9901 47.5288 18.6719C46.9753 18.3504 46.5494 17.8963 46.2511 17.3097C45.9528 16.7197 45.8036 16.0253 45.8036 15.2266C45.8036 14.4411 45.9528 13.7517 46.2511 13.1584C46.5527 12.5618 46.9736 12.0978 47.5138 11.7663C48.0541 11.4316 48.6888 11.2642 49.418 11.2642C49.8886 11.2642 50.3327 11.3404 50.7504 11.4929C51.1713 11.642 51.5425 11.8741 51.864 12.1889C52.1888 12.5038 52.444 12.9048 52.6296 13.392C52.8152 13.8759 52.908 14.4527 52.908 15.1222V15.674H46.6488V14.4609H51.1829C51.1796 14.1162 51.105 13.8097 50.9592 13.5412C50.8133 13.2694 50.6095 13.0556 50.3477 12.8999C50.0891 12.7441 49.7875 12.6662 49.4428 12.6662C49.0749 12.6662 48.7518 12.7557 48.4734 12.9347C48.195 13.1103 47.9779 13.3423 47.8221 13.6307C47.6696 13.9157 47.5917 14.2289 47.5884 14.5703V15.6293C47.5884 16.0734 47.6696 16.4545 47.832 16.7727C47.9944 17.0876 48.2215 17.3295 48.5131 17.4986C48.8048 17.6643 49.1462 17.7472 49.5373 17.7472C49.7991 17.7472 50.0361 17.7107 50.2482 17.6378C50.4603 17.5616 50.6443 17.4505 50.8001 17.3047C50.9558 17.1589 51.0735 16.9782 51.1531 16.7628L52.8335 16.9517C52.7274 17.3958 52.5252 17.7836 52.2269 18.1151C51.9319 18.4432 51.5541 18.6984 51.0934 18.8807C50.6327 19.0597 50.1057 19.1491 49.5124 19.1491ZM56.2303 14.5256V19H54.4306V11.3636H56.1507V12.6612H56.2402C56.4159 12.2337 56.696 11.8939 57.0804 11.642C57.4682 11.3902 57.9471 11.2642 58.5172 11.2642C59.0442 11.2642 59.5033 11.3769 59.8944 11.6023C60.2888 11.8277 60.5937 12.1541 60.8091 12.5817C61.0279 13.0092 61.1356 13.5279 61.1323 14.1378V19H59.3326V14.4162C59.3326 13.9058 59.2 13.5064 58.9348 13.218C58.673 12.9297 58.3101 12.7855 57.8461 12.7855C57.5312 12.7855 57.2511 12.8551 57.0059 12.9943C56.7639 13.1302 56.5733 13.3274 56.4341 13.5859C56.2982 13.8445 56.2303 14.1577 56.2303 14.5256ZM65.7956 19.1342C65.1957 19.1342 64.6588 18.9801 64.1848 18.6719C63.7109 18.3636 63.3364 17.9162 63.0613 17.3295C62.7862 16.7429 62.6486 16.0303 62.6486 15.1918C62.6486 14.3433 62.7878 13.6274 63.0662 13.044C63.348 12.4574 63.7275 12.0149 64.2047 11.7166C64.682 11.415 65.214 11.2642 65.8006 11.2642C66.248 11.2642 66.6159 11.3404 66.9043 11.4929C67.1926 11.642 67.4213 11.8227 67.5904 12.0348C67.7594 12.2436 67.8903 12.4408 67.9831 12.6264H68.0577V8.81818H69.8624V19H68.0925V17.7969H67.9831C67.8903 17.9825 67.7561 18.1797 67.5804 18.3885C67.4048 18.594 67.1728 18.7696 66.8844 18.9155C66.5961 19.0613 66.2331 19.1342 65.7956 19.1342ZM66.2978 17.6577C66.6789 17.6577 67.0037 17.5549 67.2722 17.3494C67.5407 17.1406 67.7445 16.8506 67.8837 16.4794C68.0229 16.1082 68.0925 15.6757 68.0925 15.1818C68.0925 14.688 68.0229 14.2588 67.8837 13.8942C67.7478 13.5296 67.5456 13.2462 67.2772 13.044C67.012 12.8419 66.6855 12.7408 66.2978 12.7408C65.8967 12.7408 65.562 12.8452 65.2935 13.054C65.025 13.2628 64.8229 13.5511 64.687 13.919C64.5511 14.2869 64.4831 14.7079 64.4831 15.1818C64.4831 15.6591 64.5511 16.085 64.687 16.4595C64.8262 16.8307 65.03 17.1241 65.2985 17.3395C65.5703 17.5516 65.9034 17.6577 66.2978 17.6577ZM71.7802 19V11.3636H73.5799V19H71.7802ZM72.685 10.2798C72.4 10.2798 72.1547 10.1854 71.9492 9.99645C71.7437 9.80421 71.641 9.57386 71.641 9.3054C71.641 9.03362 71.7437 8.80327 71.9492 8.61435C72.1547 8.42211 72.4 8.32599 72.685 8.32599C72.9734 8.32599 73.2186 8.42211 73.4208 8.61435C73.6263 8.80327 73.729 9.03362 73.729 9.3054C73.729 9.57386 73.6263 9.80421 73.4208 9.99645C73.2186 10.1854 72.9734 10.2798 72.685 10.2798ZM77.2303 14.5256V19H75.4306V11.3636H77.1507V12.6612H77.2402C77.4159 12.2337 77.696 11.8939 78.0804 11.642C78.4682 11.3902 78.9471 11.2642 79.5172 11.2642C80.0442 11.2642 80.5033 11.3769 80.8944 11.6023C81.2888 11.8277 81.5937 12.1541 81.8091 12.5817C82.0279 13.0092 82.1356 13.5279 82.1323 14.1378V19H80.3326V14.4162C80.3326 13.9058 80.2 13.5064 79.9348 13.218C79.673 12.9297 79.3101 12.7855 78.8461 12.7855C78.5312 12.7855 78.2511 12.8551 78.0059 12.9943C77.7639 13.1302 77.5733 13.3274 77.4341 13.5859C77.2982 13.8445 77.2303 14.1577 77.2303 14.5256ZM87.2828 22.0227C86.6365 22.0227 86.0814 21.9349 85.6174 21.7592C85.1534 21.5869 84.7805 21.3549 84.4988 21.0632C84.217 20.7715 84.0215 20.4484 83.9121 20.0938L85.5328 19.701C85.6058 19.8501 85.7118 19.9976 85.851 20.1435C85.9902 20.2926 86.1775 20.4152 86.4128 20.5114C86.6515 20.6108 86.9514 20.6605 87.3127 20.6605C87.8231 20.6605 88.2457 20.5362 88.5804 20.2876C88.9152 20.0424 89.0826 19.638 89.0826 19.0746V17.6278H88.9931C88.9003 17.8134 88.7644 18.004 88.5854 18.1996C88.4097 18.3951 88.1761 18.5592 87.8844 18.6918C87.5961 18.8243 87.2331 18.8906 86.7956 18.8906C86.209 18.8906 85.677 18.7531 85.1998 18.478C84.7258 18.1996 84.348 17.7853 84.0662 17.2351C83.7878 16.6816 83.6486 15.9889 83.6486 15.157C83.6486 14.3184 83.7878 13.6108 84.0662 13.0341C84.348 12.4541 84.7275 12.0149 85.2047 11.7166C85.682 11.415 86.214 11.2642 86.8006 11.2642C87.248 11.2642 87.6159 11.3404 87.9043 11.4929C88.196 11.642 88.428 11.8227 88.6003 12.0348C88.7727 12.2436 88.9036 12.4408 88.9931 12.6264H89.0925V11.3636H90.8674V19.1243C90.8674 19.7772 90.7116 20.3175 90.4 20.745C90.0885 21.1726 89.6626 21.4924 89.1223 21.7045C88.5821 21.9167 87.9689 22.0227 87.2828 22.0227ZM87.2978 17.4787C87.6789 17.4787 88.0037 17.3859 88.2722 17.2003C88.5407 17.0147 88.7445 16.7479 88.8837 16.3999C89.0229 16.0518 89.0925 15.6342 89.0925 15.147C89.0925 14.6664 89.0229 14.2455 88.8837 13.8842C88.7478 13.523 88.5456 13.2429 88.2772 13.044C88.012 12.8419 87.6855 12.7408 87.2978 12.7408C86.8967 12.7408 86.562 12.8452 86.2935 13.054C86.025 13.2628 85.8229 13.5495 85.687 13.9141C85.5511 14.2753 85.4831 14.6863 85.4831 15.147C85.4831 15.6143 85.5511 16.0237 85.687 16.375C85.8262 16.723 86.03 16.9948 86.2985 17.1903C86.5703 17.3826 86.9034 17.4787 87.2978 17.4787Z" fill="#DEE0DB"/>
</svg>
